<svg xmlns="http://www.w3.org/2000/svg" viewBox="0 0 120 84"><path fill="#f4f4f4" d="M0 0v83.596h120V0z"/><path fill="#222538" d="M68.953 40.074h7.215v-.737l.003-8.487c0-.137-.02-.281.014-.41a.5.5 0 0 1 .052-.116c.04-.062.093-.117.138-.12.084-.007.212.09.26.174.079.134.109.293.158.443.95 2.917 1.908 5.83 2.842 8.752.126.395.29.562.741.557 2.338-.025 4.674-.013 7.012-.013h.661v-.002c-.108-.32-.174-.54-.255-.756-1.426-3.792-2.848-7.587-4.293-11.373a1.75 1.75 0 0 1 .002-1.355l.572-1.478q.914-2.371 1.822-4.746l1.415-3.697.324-.832.484-1.23q.067-.174.138-.35c.08.157.123.225.148.298a8877 8877 0 0 1 5.878 17.007c.088.254.112.538.112.81.007 2.338.002 4.676.002 7.014v.644h7.416v-.74c0-2.201-.017-4.402.012-6.602.007-.518.1-1.056.27-1.546 1.963-5.648 3.949-11.287 5.927-16.93.067-.193.115-.393.179-.615-.154-.032-.23-.061-.305-.061-2.358-.004-4.715 0-7.072-.01-.267 0-.397.086-.474.265a1 1 0 0 0-.062.211c-.498 2.363-1.013 4.722-1.527 7.081-.076.353-.175.7-.262 1.05v.004q-.115.004-.23.005c-.063-.192-.14-.382-.186-.58-.567-2.49-1.134-4.979-1.688-7.471-.082-.367-.198-.57-.653-.57-4.914.017-9.828.014-14.742.004-.326 0-.516.082-.643.345q-.028.057-.051.128a449 449 0 0 1-1.05 3.02l-.892 2.537-.455 1.292c-.378 1.075-.75 2.153-1.147 3.222l-.026.06c-.083.17-.24.314-.356.471-.07-.198-.162-.393-.202-.597-.034-.17-.009-.352-.009-.529 0-3.104-.008-6.208.011-9.312.002-.482-.132-.649-.637-.643-1.978.025-3.955.03-5.933-.002-.42-.006-.602.092-.667.365a1.5 1.5 0 0 0-.031.337c.015 8.39.01 16.779.012 25.168 0 .209.019.418.03.644zm-46.248 3.558c-.09.079-.137.203-.158.38-.281 2.24-.571 4.48-.862 6.718-.277 2.142-.553 4.284-.845 6.424-.02.148-.157.28-.24.42-.176-.19-.205-.302-.214-.417-.356-4.325-.72-8.65-1.05-12.977-.038-.503-.17-.672-.696-.665-1.978.028-3.956.01-5.933.013-.174 0-.346.025-.537.04-.006.14-.022.236-.013.328.249 2.324.504 4.645.75 6.969a8399 8399 0 0 1 1.956 18.628c.045.434.183.6.657.597a301 301 0 0 1 7.73.009c.31.005.502-.05.626-.172.126-.123.185-.312.227-.573.556-3.47 1.134-6.936 1.713-10.401.033-.202.132-.393.2-.59l.175.018c.057.218.121.433.166.652.689 3.448 1.386 6.893 2.048 10.344.105.548.309.727.89.718 2.517-.035 5.033-.014 7.551-.016.215 0 .428-.018.702-.03l2.426-26.476h-6.861c-.02.14-.043.235-.048.331-.241 4.315-.478 8.63-.729 12.944-.013.226-.144.447-.22.67-.107-.223-.279-.437-.312-.668q-.926-6.413-1.818-12.83c-.05-.366-.196-.503-.573-.5-2.097.011-4.195.014-6.293-.003-.193-.002-.326.033-.416.114z"/><path fill="#222538" d="M12.17 43.57h.002v-.004zm49.345-.055q-.492.006-.982.008c-1.688.012-3.38.002-5.069.005-.213 0-.427.025-.657.039v26.476c.225.014.42.036.613.036 1.777.003 3.555-.018 5.333.016h.037c.509.003.627-.17.625-.667-.022-3.653-.012-7.307-.01-10.962 0-.22.027-.44.04-.66l.172-.047c.114.18.253.352.34.544 1.708 3.745 3.416 7.489 5.103 11.242.18.4.39.553.842.547l.513-.005c1.806-.017 3.613-.006 5.419-.007.192 0 .383-.024.575-.037V43.527c-1.248 0-2.45-.01-3.647 0q-.148 0-.295.003c-.87.01-1.74.058-2.61.09-.026.84-.071 1.679-.074 2.518-.008 3.105-.002 6.209-.004 9.313 0 .244-.027.489-.04.733l-.204.056c-.102-.198-.217-.389-.304-.593-1.62-3.846-3.243-7.69-4.842-11.543-.18-.433-.393-.595-.873-.59zm-33.826-9.898c.19 1.663.712 3.085 1.636 4.19.589.705 1.344 1.28 2.278 1.707l.04.02.053.022a9 9 0 0 0 1.063.385 16.5 16.5 0 0 0 4.638.661 16.6 16.6 0 0 0 4.636-.682c2.71-.796 4.455-2.554 5.03-5.314.187-.898.28-1.828.291-2.745.038-2.809.014-5.619.014-8.428 0-3.065-.01-6.13.012-9.194.003-.5-.108-.687-.656-.68l-.191.003q-2.991.045-5.979-.002h-.008q-.209-.002-.342.034c-.276.077-.342.286-.341.678.017 5.442.013 10.884.007 16.326a16 16 0 0 1-.081 1.647c-.078.74-.373 1.267-.904 1.504a1.6 1.6 0 0 1-.406.117 5.6 5.6 0 0 1-1.44.019 8 8 0 0 1-.392-.051c-.636-.1-1.082-.547-1.223-1.164a7.7 7.7 0 0 1-.179-1.689c-.012-5.5-.007-11.002-.007-16.503q0-.453-.222-.68-.218-.222-.65-.226h-6.01c-.778 0-.781 0-.781.777-.001 5.639-.005 11.278.005 16.916 0 .784.023 1.574.111 2.352zm62.907 21.651c-1.11-.723-2.332-1.283-3.496-1.929a29 29 0 0 1-1.744-1.027c-.495-.321-.698-.795-.554-1.38.14-.573.512-.956 1.095-1.036.567-.078 1.162-.142 1.72-.058 1.536.23 3.06.54 4.59.814.147.027.3.027.492.042.278-2.192.547-4.333.822-6.474.031-.246-.067-.343-.203-.388-.107-.036-.236-.038-.344-.056-2.76-.466-5.54-.77-8.341-.624-2.498.13-4.597 1.088-6.08 3.151-1.27 1.769-1.614 3.774-1.493 5.883.153 2.694 1.342 4.811 3.692 6.247l.08.046q.228.138.46.269l.212.12.298.163c.467.255.937.505 1.398.769.86.495 1.727.984 2.554 1.528.496.326.812.812.774 1.445-.055.942-.672 1.482-1.837 1.387a23 23 0 0 1-1.977-.258 62 62 0 0 1-1.621-.302c-.928-.182-1.837-.456-2.752-.69h-.002c-.055.12-.096.171-.1.224-.151 1.938-.31 3.874-.43 5.814-.008.143.23.394.399.443h.002c3.027.893 6.112 1.384 9.272.993 2.476-.307 4.446-1.452 5.678-3.664.676-1.215.943-2.54 1.03-3.9.203-3.157-.853-5.767-3.59-7.552zM58.24 40.42c2.532.359 5.016.048 7.459-.645.913-.26 1.257-.36 1.321-.758.038-.239-.024-.583-.125-1.134-.28-1.52-.576-3.036-.875-4.6-.273.054-.483.102-.696.135-1.416.216-2.827.49-4.251.623-1.017.095-1.813-.423-2.293-1.316a5.4 5.4 0 0 1-.502-1.315c-.524-2.246-.462-4.526-.284-6.799a11.4 11.4 0 0 1 .534-2.644c.46-1.406 1.638-2.067 3.133-1.869.533.071 1.062.18 1.583.31.885.224 1.761.479 2.7.736v.004c.04-.12.072-.2.092-.272l.017-.068c.331-1.875.631-3.755 1.004-5.622.11-.552-.061-.747-.545-.94-2.266-.907-4.62-1.225-7.042-1.031-3.846.307-6.54 2.171-7.92 5.775a17 17 0 0 0-.597 1.875 19.5 19.5 0 0 0-.537 3.225c-.287 3.387-.218 6.752.78 10.038 1.058 3.48 3.267 5.758 7.044 6.293m-46.344-.392c.102.042.139.07.175.07 4.393.006 8.788.015 13.18-.003.137 0 .381-.258.395-.412.116-1.192.185-2.388.27-3.583l.14-1.929H19.33v-.871c0-6.345-.005-12.69.01-19.035 0-.257-.025-.437-.123-.551-.098-.116-.27-.165-.562-.16-2.017.036-4.035.042-6.051 0-.637-.014-.751.204-.751.774.016 8.349.011 16.697.013 25.045 0 .23.019.457.029.656zm32.166 3.496h-.88v26.502c.125.022.202.047.279.047h3.326q1.664-.001 3.325.012c.506.005.467-.296.467-.619-.001-8.447-.004-16.895.006-25.342 0-.45-.126-.616-.61-.61-1.971.023-3.943.01-5.913.01m61.68.091c-.122-.042-.176-.077-.231-.077-2.256-.006-4.511-.004-6.767-.017-.183 0-.288.043-.345.114a.3.3 0 0 0-.045.079l-.013.045a.5.5 0 0 0-.012.098v.105l.005.108.002.055c.054 1.864.118 3.727.165 5.59.098 3.886.194 7.772.275 11.658.01.438.116.633.608.626h.02c1.71-.025 3.424-.017 5.135-.004h.058c.386.002.557-.09.57-.52v-.008c.18-5.745.379-11.49.573-17.236v-.002c.006-.21 0-.42 0-.615h.002v-.002zm-1.836 20.392a6.6 6.6 0 0 0-3.659.007q-.303.086-.565.223a2.44 2.44 0 0 0-1.154 1.29c-1.113 2.74.386 4.973 3.364 5.01h.18v-.023h.002c.278 0 .558.021.834-.004.604-.053 1.136-.201 1.575-.44.729-.395 1.205-1.037 1.331-1.891.109-.74.056-1.53-.075-2.27-.174-.988-.851-1.626-1.833-1.902"/><path fill="#222538" d="M117.316 2.142H2.003v79.425h116.112V2.142zm-3.541 75.128H6.342V6.44h107.433z"/></svg>